<svg version="1.1" viewBox="0.0 0.0 960.0 720.0" fill="none" stroke="none" stroke-linecap="square" stroke-miterlimit="10" xmlns:xlink="http://www.w3.org/1999/xlink" xmlns="http://www.w3.org/2000/svg"><clipPath id="p.0"><path d="m0 0l960.0 0l0 720.0l-960.0 0l0 -720.0z" clip-rule="nonzero"/></clipPath><g clip-path="url(#p.0)"><path fill="#000000" fill-opacity="0.0" d="m0 0l960.0 0l0 720.0l-960.0 0z" fill-rule="evenodd"/><path fill="#000000" fill-opacity="0.0" d="m127.79265 160.4672l688.0 0l0 382.20474l-688.0 0z" fill-rule="evenodd"/><path stroke="#000000" stroke-width="8.0" stroke-linejoin="round" stroke-linecap="butt" d="m127.79265 160.4672l688.0 0l0 382.20474l-688.0 0z" fill-rule="evenodd"/><path fill="#000000" d="m145.57217 176.05774l652.4409 0l0 351.02362l-652.4409 0z" fill-rule="evenodd"/><path stroke="#000000" stroke-width="1.0" stroke-linejoin="round" stroke-linecap="butt" d="m145.57217 176.05774l652.4409 0l0 351.02362l-652.4409 0z" fill-rule="evenodd"/><path fill="#000000" fill-opacity="0.0" d="m385.73227 476.62466l155.90555 0l0 58.17325l-155.90555 0z" fill-rule="evenodd"/><path fill="#ffffff" d="m413.84164 509.20404q0.40625 0 0.640625 0.390625q0.25 0.375 0.25 1.046875q0 1.28125 -0.609375 1.984375q-1.4375 1.703125 -2.890625 2.796875q-1.453125 1.078125 -3.03125 1.078125q-2.078125 0 -3.03125 -1.46875q-0.9375 -1.46875 -0.9375 -3.90625q0 -1.3125 0.3125 -3.34375q0.328125 -2.03125 0.84375 -3.953125l-3.875 0q-1.28125 6.046875 -1.59375 10.8125q-0.0625 1.03125 -0.609375 1.453125q-0.546875 0.40625 -1.703125 0.40625q-1.015625 0 -1.40625 -0.40625q-0.375 -0.421875 -0.375 -1.3125q0 -0.265625 0.0625 -0.90625q0.4375 -5.3125 1.53125 -10.046875l-0.3125 0q-0.96875 0 -1.3125 -0.34375q-0.328125 -0.359375 -0.328125 -1.125q0 -1.796875 1.4375 -1.796875l3.53125 0l7.390625 0l3.546875 0q0.515625 0 0.734375 0.234375q0.21875 0.21875 0.21875 0.828125q0 1.0625 -0.8125 1.640625q-0.8125 0.5625 -2.15625 0.5625l-0.03125 0l-0.453125 2.40625q-0.765625 3.515625 -0.765625 4.765625q0 0.953125 0.25 1.46875q0.265625 0.515625 0.875 0.515625q0.578125 0 1.4375 -0.796875q0.859375 -0.796875 2.296875 -2.53125q0.390625 -0.453125 0.875 -0.453125z" fill-rule="nonzero"/><path fill="#000000" fill-opacity="0.0" d="m402.2152 266.1942l0 211.52756" fill-rule="evenodd"/><path stroke="#ffffff" stroke-width="3.0" stroke-linejoin="round" stroke-linecap="butt" stroke-dasharray="3.0,9.0" d="m402.2152 266.1942l0 211.52756" fill-rule="evenodd"/><path fill="#000000" fill-opacity="0.0" d="m-55.6063 233.42258l95.338585 95.33859" fill-rule="evenodd"/><path stroke="#ffffff" stroke-width="3.0" stroke-linejoin="round" stroke-linecap="butt" stroke-dasharray="3.0,9.0" d="m-55.6063 233.42258l95.338585 95.33859" fill-rule="evenodd"/><path fill="#000000" fill-opacity="0.0" d="m308.20734 479.91077l0 -250.99213" fill-rule="evenodd"/><path stroke="#ffffff" stroke-width="4.0" stroke-linejoin="round" stroke-linecap="butt" d="m308.20734 479.91077l0 -226.99213" fill-rule="evenodd"/><path stroke="#ffffff" stroke-width="4.0" stroke-linecap="butt" d="m314.81427 252.91864l-6.6069336 -18.15239l-6.606903 18.15239z" fill-rule="evenodd"/><path fill="#000000" fill-opacity="0.0" d="m306.20734 478.65353l387.4961 -2.9921265" fill-rule="evenodd"/><path stroke="#ffffff" stroke-width="4.0" stroke-linejoin="round" stroke-linecap="butt" d="m306.20734 478.65353l363.49677 -2.8067932" fill-rule="evenodd"/><path stroke="#ffffff" stroke-width="4.0" stroke-linecap="butt" d="m669.7551 482.45346l18.10083 -6.746887l-18.20282 -6.4665833z" fill-rule="evenodd"/><path fill="#000000" fill-opacity="0.0" d="m308.6614 430.05853c0 -14.460236 9.537323 -27.448486 11.91864 -41.711273c4.3132935 -25.834137 12.079681 -52.545746 27.805786 -73.490814c5.9562073 -7.9328613 7.807617 -18.306915 12.910767 -26.81366c8.757965 -14.599182 28.987701 -26.175293 45.682404 -22.839905c34.901855 6.972992 52.29486 48.321136 77.461945 73.48819c25.19043 25.19046 57.516937 42.661346 89.380585 58.5932c35.035828 17.517914 71.06232 40.719147 110.23358 40.719147" fill-rule="evenodd"/><path stroke="#efefef" stroke-width="4.0" stroke-linejoin="round" stroke-linecap="butt" d="m308.6614 430.05853c0 -14.460236 9.537323 -27.448486 11.91864 -41.711273c4.3132935 -25.834137 12.079681 -52.545746 27.805786 -73.490814c5.9562073 -7.9328613 7.807617 -18.306915 12.910767 -26.81366c8.757965 -14.599182 28.987701 -26.175293 45.682404 -22.839905c34.901855 6.972992 52.29486 48.321136 77.461945 73.48819c25.19043 25.19046 57.516937 42.661346 89.380585 58.5932c35.035828 17.517914 71.06232 40.719147 110.23358 40.719147" fill-rule="evenodd"/><path fill="#000000" fill-opacity="0.0" d="m156.72966 212.72441l155.9055 0l0 79.18111l-155.9055 0z" fill-rule="evenodd"/><path fill="#ffffff" d="m177.40154 264.1938q0.390625 -0.34375 0.765625 -0.34375q0.421875 0 0.671875 0.46875q0.265625 0.46875 0.265625 1.125q0 1.453125 -1.03125 2.328125q-1.8125 1.484375 -4.09375 1.484375q-3.296875 0 -4.828125 -2.75q-1.515625 -2.765625 -1.515625 -7.1875q0 -4.234375 1.09375 -9.640625q1.09375 -5.40625 3.21875 -9.28125q2.140625 -3.890625 5.078125 -3.890625q1.671875 0 2.625 1.546875q0.953125 1.53125 0.953125 4.421875q0 4.125 -2.28125 9.5625q-2.265625 5.4375 -6.1875 10.734375q0.25 1.421875 0.875 2.046875q0.625 0.625 1.6875 0.625q0.59375 0 1.34375 -0.34375q0.75 -0.34375 1.359375 -0.90625zm-1.140625 -24.25q-0.796875 0 -1.796875 2.875q-1.0 2.875 -1.765625 7.140625q-0.765625 4.25 -0.828125 8.171875q2.453125 -4.046875 3.90625 -8.125q1.453125 -4.078125 1.453125 -7.4375q0 -2.625 -0.96875 -2.625z" fill-rule="nonzero"/><path fill="#ffffff" d="m201.68271 275.8969q-2.375 -0.34375 -4.0 -2.109375q-1.625 -1.75 -2.328125 -3.859375q-0.921875 -2.078125 -0.875 -5.40625q0.046875 -3.328125 0.984375 -6.78125q0.25 -0.9375 0.4375 -1.921875q0.203125 -0.984375 0.25 -1.328125q0.140625 -0.5 0.640625 -1.625q0.5 -1.140625 1.140625 -2.59375q0.640625 -1.46875 1.25 -2.921875q0.625 -1.453125 1.0625 -2.578125q0.546875 -1.234375 1.609375 -2.90625q1.0625 -1.6875 2.21875 -3.359375q1.15625 -1.6875 2.109375 -2.921875q0.96875 -1.234375 1.359375 -1.515625q0.25 -0.25 0.6875 -0.640625q0.453125 -0.40625 0.796875 -0.453125q0.203125 -0.546875 0.78125 -0.890625q0.59375 -0.34375 1.046875 -0.34375q1.125 -0.59375 2.40625 -0.34375q1.296875 0.25 1.6875 1.734375q0.140625 0.6875 0.015625 0.890625q-0.109375 0.1875 -1.109375 0.625q-0.484375 0.203125 -1.234375 0.578125q-0.734375 0.359375 -1.078125 0.765625q-0.4375 0.53125 -0.984375 1.078125q-0.546875 0.546875 -0.84375 0.734375q-0.890625 0.359375 -0.890625 0.796875q0 0 -0.421875 0.84375q-0.40625 0.828125 -1.34375 2.015625q-0.59375 0.9375 -1.390625 2.328125q-0.78125 1.375 -1.234375 2.0625q-0.4375 0.796875 -0.71875 1.3125q-0.265625 0.515625 -0.75 1.0625q0 0.140625 -0.15625 0.6875q-0.140625 0.546875 -0.59375 1.234375q-0.296875 1.078125 -1.171875 2.90625q-0.359375 0.78125 -0.828125 2.078125q-0.46875 1.28125 -0.796875 2.46875q-0.3125 1.171875 -0.3125 1.671875q-0.09375 0 -0.171875 0.265625q-0.0625 0.265625 -0.1875 1.1875q-0.125 0.90625 -0.421875 2.9375q-0.046875 2.21875 0.125 3.65625q0.171875 1.421875 0.703125 2.421875q0.546875 1.015625 1.4375 2.0q0.546875 0.5 1.078125 0.75q0.546875 0.25 1.296875 0.296875l1.671875 1.03125q-0.296875 1.140625 -1.21875 1.65625q-0.90625 0.515625 -1.734375 0.421875z" fill-rule="nonzero"/><path fill="#ffffff" d="m241.78552 258.3813q0.625 0 0.984375 0.578125q0.359375 0.578125 0.359375 1.578125q0 1.921875 -0.90625 2.984375q-2.171875 2.53125 -4.359375 4.171875q-2.171875 1.625 -4.53125 1.625q-3.109375 0 -4.53125 -2.203125q-1.421875 -2.203125 -1.421875 -5.859375q0 -1.96875 0.484375 -5.015625q0.484375 -3.046875 1.25 -5.921875l-5.8125 0q-1.921875 9.0625 -2.390625 16.21875q-0.09375 1.53125 -0.921875 2.15625q-0.8125 0.625 -2.546875 0.625q-1.53125 0 -2.109375 -0.625q-0.578125 -0.625 -0.578125 -1.96875q0 -0.375 0.109375 -1.34375q0.671875 -7.953125 2.296875 -15.0625l-0.484375 0q-1.4375 0 -1.9375 -0.53125q-0.5 -0.53125 -0.5 -1.671875q0 -2.6875 2.15625 -2.6875l5.28125 0l11.078125 0l5.328125 0q0.78125 0 1.109375 0.34375q0.34375 0.328125 0.34375 1.234375q0 1.578125 -1.234375 2.453125q-1.21875 0.859375 -3.234375 0.859375l-0.046875 0l-0.671875 3.59375q-1.15625 5.28125 -1.15625 7.15625q0 1.4375 0.375 2.203125q0.390625 0.765625 1.3125 0.765625q0.859375 0 2.15625 -1.1875q1.296875 -1.203125 3.453125 -3.796875q0.578125 -0.671875 1.296875 -0.671875z" fill-rule="nonzero"/><path fill="#ffffff" d="m240.48419 275.74066q-0.9375 -0.25 -1.828125 -1.0625q-0.875 -0.8125 -0.921875 -1.546875q0.046875 -0.15625 0.046875 -0.59375q0 -0.4375 0.1875 -0.796875q0 0 0.3125 0.140625q0.328125 0.15625 1.125 -0.03125q0.984375 0.046875 1.46875 -0.203125q0.5 -0.25 1.234375 -1.078125q0.546875 -0.75 1.265625 -1.5625q0.71875 -0.8125 0.96875 -1.453125q0.78125 -0.546875 1.125 -1.015625q0.34375 -0.46875 0.640625 -0.953125q0 -0.25 0.140625 -0.90625q0.15625 -0.671875 0.75 -1.609375q0.546875 -1.234375 1.03125 -2.09375q0.5 -0.875 0.5 -1.109375q0 0 0.140625 -0.34375q0.15625 -0.359375 0.109375 -0.84375q0.296875 -0.15625 0.515625 -0.671875q0.21875 -0.515625 0.171875 -1.0625q0 -0.140625 0.4375 -1.15625q0.453125 -1.015625 0.5 -2.046875q0.546875 -1.765625 0.8125 -3.171875q0.265625 -1.40625 0.40625 -3.078125q0.15625 -1.6875 0.3125 -4.296875q0.09375 -2.21875 0.140625 -3.328125q0.046875 -1.125 -0.03125 -1.703125q-0.0625 -0.59375 -0.453125 -1.1875q-0.5 -1.578125 -0.84375 -1.578125q-0.15625 0 -0.25 -0.59375q-0.09375 -0.59375 0.09375 -1.28125q-0.046875 -0.203125 0.71875 -0.4375q0.765625 -0.25 1.21875 -0.203125q0.34375 0 0.75 0.265625q0.421875 0.265625 0.578125 0.46875q0.1875 -0.203125 0.609375 0.640625q0.421875 0.84375 0.921875 2.265625q0.296875 0.703125 0.4375 1.171875q0.15625 0.46875 0.203125 1.03125q0.046875 0.5625 0 1.578125q-0.046875 1.015625 -0.15625 2.78125q0 1.734375 -0.21875 3.78125q-0.21875 2.046875 -0.515625 4.0q-0.296875 1.9375 -0.640625 3.515625q-0.34375 1.28125 -0.9375 3.09375q-0.59375 1.796875 -1.3125 3.625q-0.71875 1.8125 -1.328125 3.25q-0.609375 1.421875 -1.015625 2.015625q0.109375 0 -0.265625 0.59375q-0.375 0.59375 -1.0 1.515625q-0.609375 0.90625 -1.25 1.859375q-0.640625 0.96875 -1.078125 1.65625q-0.75 1.046875 -1.890625 1.984375q-1.125 0.9375 -2.1875 1.453125q-1.046875 0.515625 -1.75 0.3125z" fill-rule="nonzero"/><path fill="#000000" fill-opacity="0.0" d="m693.7034 450.6378l155.90552 0l0 63.02365l-155.90552 0z" fill-rule="evenodd"/><path fill="#ffffff" d="m724.1878 486.16653q0.46875 0 0.734375 0.4375q0.28125 0.4375 0.28125 1.1875q0 1.4375 -0.6875 2.234375q-1.609375 1.90625 -3.25 3.140625q-1.640625 1.21875 -3.40625 1.21875q-2.34375 0 -3.40625 -1.65625q-1.0625 -1.65625 -1.0625 -4.40625q0 -1.46875 0.359375 -3.75q0.359375 -2.296875 0.9375 -4.453125l-4.359375 0q-1.4375 6.8125 -1.796875 12.171875q-0.0625 1.15625 -0.6875 1.625q-0.609375 0.46875 -1.90625 0.46875q-1.140625 0 -1.578125 -0.46875q-0.4375 -0.46875 -0.4375 -1.484375q0 -0.28125 0.078125 -1.0q0.5 -5.984375 1.734375 -11.3125l-0.375 0q-1.078125 0 -1.453125 -0.390625q-0.375 -0.40625 -0.375 -1.265625q0 -2.015625 1.625 -2.015625l3.953125 0l8.3125 0l4.0 0q0.578125 0 0.828125 0.25q0.25 0.25 0.25 0.9375q0 1.1875 -0.921875 1.84375q-0.90625 0.640625 -2.421875 0.640625l-0.03125 0l-0.515625 2.703125q-0.859375 3.953125 -0.859375 5.359375q0 1.078125 0.28125 1.65625q0.296875 0.578125 0.984375 0.578125q0.640625 0 1.609375 -0.890625q0.984375 -0.90625 2.59375 -2.859375q0.4375 -0.5 0.96875 -0.5z" fill-rule="nonzero"/><path fill="#000000" fill-opacity="0.0" d="m385.73227 462.45145l572.0315 0l0 64.62991l-572.0315 0z" fill-rule="evenodd"/><path fill="#ffffff" d="m399.73227 496.5727q-0.1875 -0.140625 -0.4375 -0.40625q-0.234375 -0.265625 -0.234375 -0.90625q0 -0.65625 0.484375 -1.921875q0.640625 -1.28125 0.921875 -1.875q0.28125 -0.59375 0.6875 -1.078125q0.328125 -0.59375 1.015625 -1.34375q0.703125 -0.75 1.53125 -1.421875q0.84375 -0.671875 1.640625 -1.09375q0.8125 -0.4375 1.375 -0.359375q0.328125 0.03125 0.84375 0.75q0.53125 0.703125 1.125 1.8125q0.609375 1.09375 1.203125 2.3125q0.59375 1.203125 1.078125 2.265625q0.484375 1.0625 0.75 1.703125q0.1875 0.453125 -0.0625 1.046875q-0.234375 0.59375 -0.71875 1.03125q-0.484375 0.421875 -1.0 0.328125q-0.5 -0.09375 -0.796875 -1.0625q-0.1875 -0.5625 -0.328125 -0.96875q-0.125 -0.40625 -0.4375 -1.15625q-0.3125 -0.75 -1.03125 -2.28125q-0.59375 -1.0 -0.859375 -1.5q-0.25 -0.515625 -0.4375 -0.65625q-0.1875 -0.15625 -0.5625 -0.046875q-0.484375 0.15625 -0.953125 0.5625q-0.46875 0.40625 -1.015625 1.328125q-0.53125 0.90625 -1.3125 2.625q-0.40625 1.234375 -1.15625 1.921875q-0.75 0.6875 -1.3125 0.390625z" fill-rule="nonzero"/></g></svg>